<svg xmlns="http://www.w3.org/2000/svg" viewBox="0 0 34 31.17"><defs><style>.cls-1{fill:#fff;}</style></defs><title>자산 1</title><g id="레이어_2" data-name="레이어 2"><g id="Layer_1" data-name="Layer 1"><path class="cls-1" d="M0,0Q0,15.58,0,31.13c3.88,0,7.77,0,11.65,0,.06-5.14-.07-10.29.07-15.42,1.27,1.77,2.43,3.63,3.73,5.39,2.18,3.38,4.64,6.57,6.72,10,3.91.11,7.82,0,11.73.07,0-.49.09-1,.09-1.47C33.94,19.81,34,9.92,33.94,0c-3.86,0-7.73,0-11.59,0,0,5.17,0,10.34,0,15.5C18.72,10.4,15.33,5.14,11.65.09,7.78-.08,3.88,0,0,0Z"/></g></g></svg>